<svg width="60" height="70" viewBox="0 0 60 70" fill="none" xmlns="http://www.w3.org/2000/svg">
<path d="M10 63.6942C9.29167 63.6942 8.69792 63.4176 8.21875 62.8643C7.73958 62.311 7.5 61.6254 7.5 60.8075V46.3741C7.5 44.7864 7.98958 43.4273 8.96875 42.2966C9.94792 41.166 11.125 40.6007 12.5 40.6007V29.0539C12.5 27.4663 12.9896 26.1071 13.9688 24.9765C14.9479 23.8459 16.125 23.2806 17.5 23.2806H27.5V19.0949C26.75 18.5175 26.1458 17.8199 25.6875 17.002C25.2292 16.1841 25 15.1978 25 14.0432C25 13.3215 25.125 12.6118 25.375 11.9142C25.625 11.2166 26 10.5791 26.5 10.0018L30 5.96042L33.5 10.0018C34 10.5791 34.375 11.2166 34.625 11.9142C34.875 12.6118 35 13.3215 35 14.0432C35 15.1978 34.7708 16.1841 34.3125 17.002C33.8542 17.8199 33.25 18.5175 32.5 19.0949V23.2806H42.5C43.875 23.2806 45.0521 23.8459 46.0312 24.9765C47.0104 26.1071 47.5 27.4663 47.5 29.0539V40.6007C48.875 40.6007 50.0521 41.166 51.0312 42.2966C52.0104 43.4273 52.5 44.7864 52.5 46.3741V60.8075C52.5 61.6254 52.2604 62.311 51.7812 62.8643C51.3021 63.4176 50.7083 63.6942 50 63.6942H10ZM17.5 40.6007H42.5V29.0539H17.5V40.6007ZM12.5 57.9209H47.5V46.3741H12.5V57.9209Z" fill="#191919"/>
</svg>
