<svg width="45" height="45" viewBox="0 0 45 45" fill="none" xmlns="http://www.w3.org/2000/svg">
<path d="M22.5 41.25C19.9062 41.25 17.4688 40.7578 15.1875 39.7734C12.9062 38.7891 10.9219 37.4531 9.23438 35.7656C7.54688 34.0781 6.21094 32.0938 5.22656 29.8125C4.24219 27.5312 3.75 25.0938 3.75 22.5C3.75 20.1562 4.20312 17.8594 5.10938 15.6094C6.01562 13.3594 7.28125 11.3516 8.90625 9.58594C10.5312 7.82031 12.4844 6.39844 14.7656 5.32031C17.0469 4.24219 19.5469 3.70312 22.2656 3.70312C22.9219 3.70312 23.5938 3.73437 24.2812 3.79688C24.9688 3.85938 25.6719 3.96875 26.3906 4.125C26.1094 5.53125 26.2031 6.85938 26.6719 8.10938C27.1406 9.35938 27.8438 10.3984 28.7812 11.2266C29.7188 12.0547 30.8359 12.625 32.1328 12.9375C33.4297 13.25 34.7656 13.1719 36.1406 12.7031C35.3281 14.5469 35.4453 16.3125 36.4922 18C37.5391 19.6875 39.0938 20.5625 41.1562 20.625C41.1875 20.9688 41.2109 21.2891 41.2266 21.5859C41.2422 21.8828 41.25 22.2031 41.25 22.5469C41.25 25.1094 40.7578 27.5234 39.7734 29.7891C38.7891 32.0547 37.4531 34.0391 35.7656 35.7422C34.0781 37.4453 32.0938 38.7891 29.8125 39.7734C27.5312 40.7578 25.0938 41.25 22.5 41.25ZM19.6875 18.75C20.4688 18.75 21.1328 18.4766 21.6797 17.9297C22.2266 17.3828 22.5 16.7188 22.5 15.9375C22.5 15.1562 22.2266 14.4922 21.6797 13.9453C21.1328 13.3984 20.4688 13.125 19.6875 13.125C18.9062 13.125 18.2422 13.3984 17.6953 13.9453C17.1484 14.4922 16.875 15.1562 16.875 15.9375C16.875 16.7188 17.1484 17.3828 17.6953 17.9297C18.2422 18.4766 18.9062 18.75 19.6875 18.75ZM15.9375 28.125C16.7188 28.125 17.3828 27.8516 17.9297 27.3047C18.4766 26.7578 18.75 26.0938 18.75 25.3125C18.75 24.5312 18.4766 23.8672 17.9297 23.3203C17.3828 22.7734 16.7188 22.5 15.9375 22.5C15.1562 22.5 14.4922 22.7734 13.9453 23.3203C13.3984 23.8672 13.125 24.5312 13.125 25.3125C13.125 26.0938 13.3984 26.7578 13.9453 27.3047C14.4922 27.8516 15.1562 28.125 15.9375 28.125ZM28.125 30C28.6562 30 29.1016 29.8203 29.4609 29.4609C29.8203 29.1016 30 28.6562 30 28.125C30 27.5938 29.8203 27.1484 29.4609 26.7891C29.1016 26.4297 28.6562 26.25 28.125 26.25C27.5938 26.25 27.1484 26.4297 26.7891 26.7891C26.4297 27.1484 26.25 27.5938 26.25 28.125C26.25 28.6562 26.4297 29.1016 26.7891 29.4609C27.1484 29.8203 27.5938 30 28.125 30ZM22.5 37.5C26.3125 37.5 29.6953 36.1875 32.6484 33.5625C35.6016 30.9375 37.2188 27.5938 37.5 23.5312C35.9375 22.8438 34.7109 21.9062 33.8203 20.7188C32.9297 19.5312 32.3281 18.2031 32.0156 16.7344C29.6094 16.3906 27.5469 15.3594 25.8281 13.6406C24.1094 11.9219 23.0469 9.85938 22.6406 7.45312C20.1406 7.39062 17.9453 7.84375 16.0547 8.8125C14.1641 9.78125 12.5859 11.0234 11.3203 12.5391C10.0547 14.0547 9.10156 15.7031 8.46094 17.4844C7.82031 19.2656 7.5 20.9375 7.5 22.5C7.5 26.6562 8.96094 30.1953 11.8828 33.1172C14.8047 36.0391 18.3438 37.5 22.5 37.5Z" fill="#191919"/>
</svg>
