<svg width="30" height="28" viewBox="0 0 30 28" fill="none" xmlns="http://www.w3.org/2000/svg">
<path d="M15 0.121826C6.73053 0.121826 0 6.37142 0 14.05C0 21.7285 6.73053 27.9781 15 27.9781C23.2695 27.9781 30 21.7285 30 14.05C30 6.37142 23.2695 0.121826 15 0.121826ZM15 2.44318C21.9184 2.44318 27.5 7.62597 27.5 14.05C27.5 19.8851 22.8896 24.6833 16.8604 25.5162V17.4345H20.4199L20.979 14.0772H16.8604V12.2432C16.8604 10.8492 17.3536 9.61128 18.7573 9.61128H21.0132V6.68238C20.6169 6.63247 19.7784 6.52369 18.1934 6.52369C14.8834 6.52369 12.9443 8.1463 12.9443 11.8442V14.0772H9.54101V17.4345H12.9443V25.4867C7.01107 24.5781 2.5 19.8221 2.5 14.05C2.5 7.62597 8.08164 2.44318 15 2.44318Z" fill="white"/>
</svg>
