<svg width="30" height="28" viewBox="0 0 30 28" fill="none" xmlns="http://www.w3.org/2000/svg">
<path d="M8.33333 0.121826C3.73833 0.121826 0 3.59303 0 7.85968V20.2403C0 24.5069 3.73833 27.9781 8.33333 27.9781H21.6667C26.2617 27.9781 30 24.5069 30 20.2403V7.85968C30 3.59303 26.2617 0.121826 21.6667 0.121826H8.33333ZM8.33333 3.21697H21.6667C24.4233 3.21697 26.6667 5.3 26.6667 7.85968V20.2403C26.6667 22.7999 24.4233 24.883 21.6667 24.883H8.33333C5.57667 24.883 3.33333 22.7999 3.33333 20.2403V7.85968C3.33333 5.3 5.57667 3.21697 8.33333 3.21697ZM23.3333 4.76454C22.8913 4.76454 22.4674 4.92759 22.1548 5.21781C21.8423 5.50804 21.6667 5.90167 21.6667 6.31211C21.6667 6.72255 21.8423 7.11618 22.1548 7.40641C22.4674 7.69664 22.8913 7.85968 23.3333 7.85968C23.7754 7.85968 24.1993 7.69664 24.5118 7.40641C24.8244 7.11618 25 6.72255 25 6.31211C25 5.90167 24.8244 5.50804 24.5118 5.21781C24.1993 4.92759 23.7754 4.76454 23.3333 4.76454ZM15 6.31211C10.405 6.31211 6.66667 9.78331 6.66667 14.05C6.66667 18.3166 10.405 21.7878 15 21.7878C19.595 21.7878 23.3333 18.3166 23.3333 14.05C23.3333 9.78331 19.595 6.31211 15 6.31211ZM15 9.40726C17.7567 9.40726 20 11.4903 20 14.05C20 16.6097 17.7567 18.6927 15 18.6927C12.2433 18.6927 10 16.6097 10 14.05C10 11.4903 12.2433 9.40726 15 9.40726Z" fill="white"/>
</svg>
