<svg width="154" height="67" viewBox="0 0 154 67" fill="none" xmlns="http://www.w3.org/2000/svg">
<path d="M11.424 48.768C7.808 48.768 5.152 47.856 3.456 46.032C1.76 44.208 0.912 41.184 0.912 36.96C0.912 33.6 1.472 29.984 2.592 26.112C3.744 22.24 5.568 18.928 8.064 16.176C10.592 13.392 13.792 12 17.664 12C20.064 12 22 12.528 23.472 13.584C24.944 14.64 25.68 16.256 25.68 18.432C25.68 19.808 25.408 20.896 24.864 21.696C24.32 22.464 23.472 22.848 22.32 22.848C21.168 22.848 20.256 22.432 19.584 21.6C20.16 21.312 20.672 20.736 21.12 19.872C21.568 19.008 21.792 18.112 21.792 17.184C21.792 16.32 21.552 15.616 21.072 15.072C20.624 14.528 19.888 14.256 18.864 14.256C17.168 14.256 15.552 15.424 14.016 17.76C12.48 20.064 11.232 22.976 10.272 26.496C9.344 30.016 8.88 33.408 8.88 36.672C8.88 39.104 9.296 40.96 10.128 42.24C10.96 43.52 12.464 44.16 14.64 44.16C16.528 44.16 18.272 43.744 19.872 42.912C21.472 42.08 22.848 40.896 24 39.36L25.104 39.84C24.304 41.856 23.12 43.536 21.552 44.88C19.984 46.224 18.304 47.216 16.512 47.856C14.72 48.464 13.024 48.768 11.424 48.768ZM29.6194 48.288C27.7954 48.288 26.2754 47.664 25.0594 46.416C23.8434 45.168 23.2354 43.216 23.2354 40.56C23.2354 38.192 23.6994 35.712 24.6274 33.12C25.5874 30.496 26.9954 28.288 28.8514 26.496C30.7394 24.672 32.9794 23.76 35.5714 23.76C36.8834 23.76 37.8594 23.984 38.4994 24.432C39.1394 24.88 39.4594 25.472 39.4594 26.208V26.544L39.9874 24H46.8994L43.4434 40.32C43.3154 40.8 43.2514 41.312 43.2514 41.856C43.2514 43.232 43.9074 43.92 45.2194 43.92C46.1154 43.92 46.8834 43.504 47.5234 42.672C48.1954 41.84 48.7234 40.752 49.1074 39.408H51.1234C49.9394 42.864 48.4674 45.216 46.7074 46.464C44.9794 47.68 43.2354 48.288 41.4754 48.288C40.1314 48.288 39.0434 47.92 38.2114 47.184C37.4114 46.416 36.9314 45.312 36.7714 43.872C35.8434 45.184 34.8034 46.256 33.6514 47.088C32.5314 47.888 31.1874 48.288 29.6194 48.288ZM32.7394 43.632C33.5394 43.632 34.3234 43.264 35.0914 42.528C35.8914 41.76 36.4354 40.72 36.7234 39.408L39.0274 28.56C39.0274 28.144 38.8674 27.744 38.5474 27.36C38.2274 26.944 37.7314 26.736 37.0594 26.736C35.7794 26.736 34.6274 27.488 33.6034 28.992C32.5794 30.464 31.7794 32.256 31.2034 34.368C30.6274 36.448 30.3394 38.288 30.3394 39.888C30.3394 41.488 30.5634 42.512 31.0114 42.96C31.4914 43.408 32.0674 43.632 32.7394 43.632ZM67.173 48.288C65.189 48.288 63.685 47.824 62.661 46.896C61.637 45.936 61.125 44.576 61.125 42.816C61.125 42.048 61.221 41.216 61.413 40.32L61.797 38.448C61.925 37.904 61.989 37.312 61.989 36.672C61.989 35.136 61.413 34.368 60.261 34.368C59.749 34.368 59.205 34.512 58.629 34.8C58.085 35.088 57.445 35.536 56.709 36.144L54.213 48H47.301L54.261 15.36L61.365 14.4L57.765 31.296L67.029 24H71.781L62.181 30.672C62.661 30.544 63.189 30.48 63.765 30.48C65.493 30.48 66.805 31.008 67.701 32.064C68.597 33.12 69.045 34.464 69.045 36.096C69.045 36.768 68.981 37.376 68.853 37.92L68.325 40.32C68.165 40.896 68.085 41.408 68.085 41.856C68.085 43.04 68.709 43.632 69.957 43.632C70.917 43.632 71.685 43.296 72.261 42.624C72.837 41.92 73.413 40.848 73.989 39.408H76.005C74.021 45.328 71.077 48.288 67.173 48.288ZM80.7368 48.288C78.4008 48.288 76.5768 47.68 75.2648 46.464C73.9527 45.216 73.2967 43.28 73.2967 40.656C73.2967 38.448 73.7287 36.016 74.5928 33.36C75.4568 30.704 76.8648 28.416 78.8168 26.496C80.7688 24.544 83.2488 23.568 86.2568 23.568C89.7768 23.568 91.5368 25.104 91.5368 28.176C91.5368 29.968 91.0248 31.616 90.0008 33.12C88.9768 34.624 87.6168 35.84 85.9208 36.768C84.2248 37.664 82.4168 38.176 80.4968 38.304C80.4328 39.008 80.4008 39.488 80.4008 39.744C80.4008 42.4 81.3928 43.728 83.3768 43.728C84.2728 43.728 85.2328 43.488 86.2568 43.008C87.2808 42.528 88.2088 41.92 89.0408 41.184C88.1768 45.92 85.4088 48.288 80.7368 48.288ZM80.8328 36C82.0488 35.968 83.1848 35.568 84.2408 34.8C85.3288 34.032 86.1928 33.056 86.8328 31.872C87.5048 30.656 87.8408 29.392 87.8408 28.08C87.8408 26.768 87.4408 26.112 86.6407 26.112C85.5208 26.112 84.4008 27.136 83.2808 29.184C82.1928 31.2 81.3768 33.472 80.8328 36ZM106.955 15.024C104.523 15.824 102.635 17.152 101.291 19.008C99.9789 20.832 99.3229 23.104 99.3229 25.824C99.3229 27.04 99.4349 27.872 99.6589 28.32C99.8829 28.768 99.9949 29.04 99.9949 29.136C96.5709 29.136 94.8589 27.68 94.8589 24.768C94.8589 22.784 95.6109 20.8 97.1149 18.816C98.6509 16.8 100.603 15.168 102.971 13.92C105.371 12.64 107.755 12 110.123 12C111.307 12 112.523 12.224 113.771 12.672L112.667 37.968L123.227 12.672H130.139L125.099 48H118.187L121.259 26.448L112.235 48H105.659L106.619 26.352L98.6029 48H94.7629L106.955 15.024ZM137.344 21.408C136.288 21.408 135.392 21.04 134.656 20.304C133.92 19.568 133.552 18.672 133.552 17.616C133.552 16.56 133.92 15.664 134.656 14.928C135.392 14.16 136.288 13.776 137.344 13.776C138.4 13.776 139.296 14.16 140.032 14.928C140.8 15.664 141.184 16.56 141.184 17.616C141.184 18.672 140.8 19.568 140.032 20.304C139.296 21.04 138.4 21.408 137.344 21.408ZM134.08 48.288C132.544 48.288 131.296 47.808 130.336 46.848C129.408 45.888 128.944 44.448 128.944 42.528C128.944 41.728 129.072 40.688 129.328 39.408L132.592 24H139.504L136.048 40.32C135.92 40.8 135.856 41.312 135.856 41.856C135.856 42.496 136 42.96 136.288 43.248C136.608 43.504 137.12 43.632 137.824 43.632C138.752 43.632 139.616 43.248 140.416 42.48C141.216 41.68 141.792 40.656 142.144 39.408H144.16C142.976 42.864 141.456 45.216 139.6 46.464C137.744 47.68 135.904 48.288 134.08 48.288ZM150.141 21.408C149.085 21.408 148.189 21.04 147.453 20.304C146.717 19.568 146.349 18.672 146.349 17.616C146.349 16.56 146.717 15.664 147.453 14.928C148.189 14.16 149.085 13.776 150.141 13.776C151.197 13.776 152.093 14.16 152.829 14.928C153.597 15.664 153.981 16.56 153.981 17.616C153.981 18.672 153.597 19.568 152.829 20.304C152.093 21.04 151.197 21.408 150.141 21.408ZM146.877 48.288C145.341 48.288 144.093 47.808 143.133 46.848C142.205 45.888 141.741 44.448 141.741 42.528C141.741 41.728 141.869 40.688 142.125 39.408L145.389 24H152.301L148.845 40.32C148.717 40.8 148.653 41.312 148.653 41.856C148.653 42.496 148.797 42.96 149.085 43.248C149.405 43.504 149.917 43.632 150.621 43.632C151.197 43.632 151.709 43.536 152.157 43.344C152.029 44.944 151.453 46.176 150.429 47.04C149.437 47.872 148.253 48.288 146.877 48.288Z" fill="#FAFAFA"/>
</svg>
