<svg width="24" height="24" viewBox="0 0 24 24" fill="none" xmlns="http://www.w3.org/2000/svg">
<path d="M21.8333 18C19.5185 18 17.2315 17.6215 14.9722 16.8646C12.713 16.1076 10.6574 15.0347 8.80556 13.6458C6.9537 12.2569 5.52315 10.7153 4.51389 9.02083C3.50463 7.32639 3 5.61111 3 3.875C3 3.625 3.11111 3.41667 3.33333 3.25C3.55556 3.08333 3.83333 3 4.16667 3H8.66667C8.92593 3 9.15741 3.06597 9.36111 3.19792C9.56482 3.32986 9.68519 3.48611 9.72222 3.66667L10.4444 6.58333C10.4815 6.80556 10.4722 6.99306 10.4167 7.14583C10.3611 7.29861 10.2593 7.43056 10.1111 7.54167L7.41667 9.58333C7.78704 10.0972 8.22685 10.5938 8.73611 11.0729C9.24537 11.5521 9.80556 12.0139 10.4167 12.4583C10.9907 12.8889 11.5926 13.2882 12.2222 13.6562C12.8519 14.0243 13.5185 14.3611 14.2222 14.6667L16.8333 12.7083C17 12.5833 17.2176 12.4896 17.4861 12.4271C17.7546 12.3646 18.0185 12.3472 18.2778 12.375L22.1111 12.9583C22.3704 13.0139 22.5833 13.1146 22.75 13.2604C22.9167 13.4062 23 13.5694 23 13.75V17.125C23 17.375 22.8889 17.5833 22.6667 17.75C22.4444 17.9167 22.1667 18 21.8333 18ZM6.36111 8L8.19444 6.625L7.72222 4.66667H5.25C5.34259 5.23611 5.47222 5.79861 5.63889 6.35417C5.80556 6.90972 6.0463 7.45833 6.36111 8ZM16.3056 15.4583C17.0278 15.6944 17.7639 15.8819 18.5139 16.0208C19.2639 16.1597 20.0185 16.25 20.7778 16.2917V14.4583L18.1667 14.0625L16.3056 15.4583Z" fill="white"/>
</svg>
