<svg width="45" height="39" viewBox="0 0 45 39" fill="none" xmlns="http://www.w3.org/2000/svg">
<path d="M9 38.1306V21.1383C6.45 20.705 4.3125 19.8383 2.5875 18.5384C0.8625 17.2384 0 15.7218 0 13.9885V0.988892H6V13.9885H9V0.988892H15V13.9885H18V0.988892H24V13.9885C24 15.7218 23.1375 17.2384 21.4125 18.5384C19.6875 19.8383 17.55 20.705 15 21.1383V38.1306H9ZM39 38.1306V23.2739H30V10.2743C30 7.70535 31.4625 5.51554 34.3875 3.70488C37.3125 1.89422 40.85 0.988892 45 0.988892V38.1306H39Z" fill="#191919"/>
</svg>
